<?xml version="1.0" encoding="utf-8"?>
<!-- Generator: Adobe Illustrator 23.0.1, SVG Export Plug-In . SVG Version: 6.00 Build 0)  -->
<svg version="1.1" id="Camada_1" xmlns="http://www.w3.org/2000/svg" xmlns:xlink="http://www.w3.org/1999/xlink" x="0px" y="0px"
	 viewBox="0 0 912.7 382.8" style="enable-background:new 0 0 912.7 382.8;" xml:space="preserve">
<style type="text/css">
	.st0{fill:#FFFFFF;}
	.st1{fill:#E0BD27;}
</style>
<g>
	<path class="st0" d="M100.9,157.2c-0.7-1-2-2.1-4.5-2.1H7.7c-1.8,0-3.4,0.6-4.9,1.8s-2.4,2.7-2.7,4.5c-0.4,2.4,0.4,4,1.3,4.8
		c1.1,1.2,2.7,1.9,4.5,1.9h37.9L20.5,300.5c-0.4,2.4,0.4,3.9,1.1,4.8c1.1,1.3,2.6,1.9,4.5,1.9c1.8,0,3.4-0.6,4.8-1.7
		s2.3-2.6,2.6-4.4l23.4-133h37.8c1.8,0,3.4-0.6,4.7-1.8c1.3-1.1,2.1-2.6,2.5-4.4C102.1,160.2,101.8,158.6,100.9,157.2z"/>
	<path class="st0" d="M129.7,209.5c-1.1-1.3-2.6-1.9-4.5-1.9h-13.4c-7.1,0-16.2,2.5-20.9,8.3c0.2-2,0.6-5.4-0.5-6.5
		c-1.2-1.2-2.7-1.9-4.7-1.9c-1.5,0-3,0.6-4.5,1.7s-2.4,2.7-2.7,4.5l-15.4,86.9c-0.4,1.9,0.1,3.6,1.4,4.9c1.2,1.2,2.6,1.8,4.2,1.8
		c1.9,0,3.6-0.6,5-1.7s2.3-2.6,2.6-4.4l10.6-59.9l0.2-1.2c0.9-5.1,3.6-9.8,8.2-13.9c1.9-1.8,4.3-3.2,6.9-4.2s5.3-1.5,7.9-1.5h13.4
		c1.8,0,3.4-0.6,4.8-1.7c1.4-1.1,2.3-2.6,2.6-4.4C131.1,212.4,130.7,210.8,129.7,209.5z"/>
	<path class="st0" d="M204.2,214.4c-1.9-2.3-4.2-4-7-5.2c-2.7-1.1-5.7-1.7-8.7-1.7h-37.2c-1.9,0-3.6,0.6-5,1.7s-2.3,2.6-2.6,4.4
		c-0.4,2.4,0.4,3.9,1.1,4.8c1.1,1.3,2.7,1.9,4.7,1.9h37.2c1.5,0,2.8,0.3,3.9,0.8c1.1,0.6,2.1,1.3,2.9,2.2c1.7,2,2.2,4.5,1.6,7.7
		l-0.4,2.6l-0.2,0.5l-0.1,0.3c-0.3,2.3-1.3,4.1-3,5.6c-1.8,1.5-3.9,2.2-6.1,2.2h-21.5c-4.4,0-8.7,0.8-13,2.5c-4.2,1.6-8.1,4-11.7,7
		c-3.5,3.1-6.5,6.6-8.8,10.5s-3.9,8-4.7,12.4c-0.8,4.5-0.7,8.8,0.3,12.8c1,3.9,2.8,7.4,5.3,10.3s5.6,5.3,9.3,7s7.8,2.6,12.4,2.6h9.7
		c9.4-0.2,15.2-2.4,20.6-7.9c-0.2,1.7-0.1,5,1,6.1c1.2,1.2,2.8,1.8,4.6,1.8s3.4-0.6,4.7-1.8c1.3-1.1,2.1-2.6,2.5-4.4l9.5-54.2
		l2.8-15.4C209.5,224.9,208.1,219.1,204.2,214.4z M179,288.7c-2.1,1.7-4.5,3.1-7.1,4.2c-2.6,1-5.2,1.6-7.7,1.6h-9.7
		c-2.7,0-5.1-0.5-7.2-1.5c-2.1-1-3.9-2.4-5.3-4.1c-1.4-1.7-2.4-3.8-3-6.1s-0.7-4.9-0.2-7.5c1-5.5,3.7-10.2,8.2-14
		c4.4-3.8,9.5-5.7,15-5.7h21.5c1.7,0,3.4-0.2,5-0.5c0.8-0.2,1.6-0.4,2.4-0.8l-3.6,20.4C186.4,280,183.5,284.8,179,288.7z"/>
	<path class="st0" d="M356.6,227.6c-1.1-4-2.9-7.5-5.3-10.4s-5.6-5.3-9.3-7s-7.9-2.6-12.3-2.6h-8.1c-5.7,0-11.3,1.3-16.5,4
		c-4.5,2.3-8.4,5.3-11.7,8.9c-2.3-3.6-5.3-6.5-9-8.8c-4.4-2.7-9.5-4.1-15.3-4.1H261c-7.3,0-16.9,3.4-20.5,8.3
		c0.3-2.2-0.4-5.6-1.1-6.4c-1.1-1.2-2.7-1.9-4.5-1.9s-3.4,0.6-4.7,1.8c-1.3,1.1-2.1,2.6-2.5,4.4l-15.4,86.9
		c-0.4,2.4,0.4,3.9,1.1,4.8c1.1,1.3,2.6,1.9,4.5,1.9c1.8,0,3.4-0.6,4.8-1.7c1.4-1.1,2.3-2.6,2.6-4.4l10.8-61.3
		c0.5-2.6,1.5-5.1,3-7.5s3.3-4.5,5.4-6.2c2.1-1.7,4.5-3.1,7.1-4.2c2.6-1,5.2-1.6,7.7-1.6h8.1c2.6,0,5.1,0.5,7.2,1.5
		c2.2,1,4,2.4,5.5,4.2s2.5,3.9,3.1,6.2s0.7,4.9,0.2,7.5l-10.6,60.7c-0.4,2.4,0.4,4,1.3,4.8c1.1,1.2,2.7,1.9,4.5,1.9
		c1.7,0,3.2-0.6,4.7-1.7s2.4-2.6,2.7-4.5l10.6-60.7c0.5-2.7,1.5-5.3,3-7.7s3.3-4.6,5.3-6.5c2-1.8,4.4-3.3,6.9-4.4
		c2.6-1,5.2-1.6,7.9-1.6h8.1c2.6,0,5.1,0.5,7.2,1.5s4,2.4,5.4,4.2s2.5,3.9,3.1,6.2s0.7,4.9,0.2,7.5l-10.6,60.7
		c-0.4,2.4,0.4,4,1.3,4.8c1.1,1.2,2.7,1.9,4.5,1.9s3.4-0.6,4.8-1.7s2.3-2.6,2.6-4.4l10.6-60.7C357.8,235.9,357.7,231.6,356.6,227.6z
		"/>
	<path class="st0" d="M448.5,232c-1.2-4.8-3.3-9.1-6.3-12.8c-3-3.9-6.8-6.8-11.3-8.7c-4.4-1.9-9.4-2.9-14.7-2.9s-10.6,1-15.7,2.9
		c-5.2,1.9-9.9,4.8-14,8.5c-4.3,3.6-7.9,7.9-10.7,12.6c-2.8,4.7-4.7,9.7-5.6,14.9l-3.7,21.3c-1,5.4-0.8,10.6,0.4,15.4
		c1.2,4.8,3.4,9,6.3,12.6c3,3.6,6.7,6.4,11.2,8.5c4.4,2.1,9.5,3.1,14.9,3.1c5.3,0,10.6-1,15.6-3.1c5.1-2,9.7-4.8,13.9-8.3
		s7.7-7.7,10.6-12.4c2.8-4.7,4.8-9.9,5.7-15.3l3.7-21.3C449.8,241.8,449.7,236.8,448.5,232z M400.9,294.5c-3.6,0-6.9-0.7-9.8-2
		s-5.4-3.2-7.2-5.6c-1.9-2.4-3.3-5.2-4.1-8.3s-0.9-6.6-0.3-10.3l3.7-21.3c0.6-3.4,1.9-6.7,3.8-10s4.3-6.2,7.1-8.7
		c6.4-5.3,13.2-7.9,20.3-7.9c7.2,0,12.8,2.5,17.2,7.7c2,2.4,3.4,5.3,4.2,8.5s0.9,6.5,0.3,9.8l-3.7,21.3c-0.6,3.7-1.9,7.2-3.9,10.4
		s-4.5,6.1-7.4,8.5s-6.1,4.4-9.5,5.8C408,293.8,404.5,294.5,400.9,294.5z"/>
	<path class="st0" d="M542,227.6c-1.1-4-2.9-7.5-5.3-10.4s-5.6-5.3-9.3-7s-7.9-2.6-12.5-2.6h-13c-7.3,0-16.8,3.7-20.9,8.4
		c0.3-2.2,1.2-4.9-0.8-6.5c-1.3-1.1-2.7-1.9-4.5-1.9s-3.4,0.6-4.8,1.7c-1.4,1.1-2.3,2.6-2.6,4.4l-15.4,86.9c-0.4,2.4,0.4,4,1.3,4.8
		c1.1,1.2,2.7,1.9,4.5,1.9s3.4-0.6,4.8-1.7s2.3-2.6,2.6-4.4l10.8-61.3c0.5-2.6,1.5-5.1,3-7.5s3.3-4.5,5.4-6.2s4.5-3.2,7-4.2
		s5.1-1.6,7.8-1.6h13c2.6,0,5.1,0.5,7.2,1.5c2.2,1,4,2.4,5.5,4.2s2.5,3.9,3.1,6.2s0.7,4.9,0.2,7.5l-10.6,60.7
		c-0.4,2.4,0.4,4,1.3,4.8c1.1,1.2,2.7,1.9,4.7,1.9c1.5,0,3-0.6,4.5-1.7s2.4-2.6,2.7-4.5l10.6-60.7
		C543.3,235.9,543.1,231.6,542,227.6z"/>
	<path class="st0" d="M611.5,209.4c-1.1-1.2-2.7-1.9-4.5-1.9h-28.4l8-45.5c0.3-1.9,0-3.5-1.1-4.8c-1.1-1.2-2.6-1.9-4.3-1.9
		c-1.8,0-3.4,0.6-4.9,1.7c-1.6,1.2-2.5,2.7-2.9,4.5l-18.7,106.2c-1,5.4-0.8,10.6,0.4,15.4s3.4,9,6.4,12.6s6.8,6.4,11.3,8.5
		c4.4,2.1,9.5,3.1,15.1,3.1h9.3c1.7,0,3.2-0.6,4.6-1.7c1.4-1.1,2.3-2.6,2.6-4.4c0.4-2.4-0.4-4-1.3-4.8c-1.1-1.2-2.6-1.9-4.3-1.9
		h-9.3c-3.7,0-7-0.7-9.9-2s-5.3-3.2-7.3-5.6s-3.3-5.2-4.1-8.3c-0.8-3.1-0.9-6.6-0.3-10.3l8.5-47.8h28.9c1.8,0,3.4-0.6,4.9-1.7
		c1.5-1.1,2.4-2.6,2.7-4.5C613.2,211.9,612.4,210.3,611.5,209.4z"/>
	<path class="st0" d="M791.7,227.6c-1.1-4-2.9-7.5-5.3-10.4s-5.6-5.3-9.3-7s-7.9-2.6-12.5-2.6h-13c-7.3,0-16.8,3.7-20.9,8.4
		c0.3-2.2,1.2-4.9-0.8-6.5c-1.3-1.1-2.7-1.9-4.5-1.9s-3.4,0.6-4.8,1.7s-2.3,2.6-2.6,4.4l-15.4,86.9c-0.4,2.4,0.4,4,1.3,4.8
		c1.1,1.2,2.7,1.9,4.5,1.9s3.4-0.6,4.8-1.7c1.4-1.1,2.3-2.6,2.6-4.4l10.8-61.3c0.5-2.6,1.5-5.1,3-7.5s3.3-4.5,5.4-6.2s4.5-3.2,7-4.2
		s5.1-1.6,7.8-1.6h13c2.6,0,5.1,0.5,7.2,1.5c2.2,1,4,2.4,5.5,4.2s2.5,3.9,3.1,6.2s0.7,4.9,0.2,7.5l-10.6,60.7
		c-0.4,2.4,0.4,4,1.3,4.8c1.1,1.2,2.7,1.9,4.7,1.9c1.5,0,3-0.6,4.5-1.7s2.4-2.6,2.7-4.5l10.6-60.7
		C793,235.9,792.8,231.6,791.7,227.6z"/>
	<path class="st0" d="M693.9,214.4c-1.9-2.3-4.2-4-7-5.2c-2.7-1.1-5.7-1.7-8.7-1.7H641c-1.9,0-3.6,0.6-5,1.7s-2.3,2.6-2.6,4.4
		c-0.4,2.4,0.4,3.9,1.1,4.8c1.1,1.3,2.7,1.9,4.7,1.9h37.2c1.5,0,2.8,0.3,3.9,0.8c1.1,0.6,2.1,1.3,2.9,2.2c1.7,2,2.2,4.5,1.6,7.7
		l-0.4,2.6l-0.2,0.5l-0.1,0.3c-0.3,2.3-1.3,4.1-3,5.6c-1.8,1.5-3.9,2.2-6.1,2.2h-21.5c-4.4,0-8.7,0.8-13,2.5c-4.2,1.6-8.1,4-11.7,7
		c-3.5,3.1-6.5,6.6-8.8,10.5s-3.9,8-4.7,12.4c-0.8,4.5-0.7,8.8,0.3,12.8c1,3.9,2.8,7.4,5.3,10.3s5.6,5.3,9.3,7s7.8,2.6,12.4,2.6h9.7
		c9.4-0.2,15.2-2.4,20.6-7.9c-0.2,1.7-0.1,5,1,6.1c1.2,1.2,2.8,1.8,4.6,1.8s3.4-0.6,4.7-1.8c1.3-1.1,2.1-2.6,2.5-4.4l9.5-54.2
		l2.8-15.4C699.2,224.9,697.8,219.1,693.9,214.4z M668.7,288.7c-2.1,1.7-4.5,3.1-7.1,4.2c-2.6,1-5.2,1.6-7.7,1.6h-9.7
		c-2.7,0-5.1-0.5-7.2-1.5s-3.9-2.4-5.3-4.1c-1.4-1.7-2.4-3.8-3-6.1s-0.7-4.9-0.2-7.5c1-5.5,3.7-10.2,8.2-14c4.4-3.8,9.5-5.7,15-5.7
		h21.5c1.7,0,3.4-0.2,5-0.5c0.8-0.2,1.6-0.4,2.4-0.8l-3.6,20.4C676.1,280,673.3,284.8,668.7,288.7z"/>
	<path class="st0" d="M876.7,214.4c-1.9-2.3-4.2-4-7-5.2c-2.7-1.1-5.7-1.7-8.7-1.7h-37.2c-1.9,0-3.6,0.6-5,1.7s-2.3,2.6-2.6,4.4
		c-0.4,2.4,0.4,3.9,1.1,4.8c1.1,1.3,2.7,1.9,4.7,1.9h37.2c1.5,0,2.8,0.3,3.9,0.8c1.1,0.6,2.1,1.3,2.9,2.2c1.7,2,2.2,4.5,1.6,7.7
		l-0.4,2.6l-0.2,0.5l-0.1,0.3c-0.3,2.3-1.3,4.1-3,5.6c-1.8,1.5-3.9,2.2-6.1,2.2h-21.5c-4.4,0-8.7,0.8-13,2.5c-4.2,1.6-8.1,4-11.7,7
		c-3.5,3.1-6.5,6.6-8.8,10.5s-3.9,8-4.7,12.4c-0.8,4.5-0.7,8.8,0.3,12.8c1,3.9,2.8,7.4,5.3,10.3s5.6,5.3,9.3,7s7.8,2.6,12.4,2.6h9.7
		c9.4-0.2,15.2-2.4,20.6-7.9c-0.2,1.7-0.1,5,1,6.1c1.2,1.2,2.8,1.8,4.6,1.8s3.4-0.6,4.7-1.8c1.3-1.1,2.1-2.6,2.5-4.4l9.5-54.2
		l2.8-15.4C882,224.9,880.6,219.1,876.7,214.4z M851.5,288.7c-2.1,1.7-4.5,3.1-7.1,4.2c-2.6,1-5.2,1.6-7.7,1.6H827
		c-2.7,0-5.1-0.5-7.2-1.5s-3.9-2.4-5.3-4.1c-1.4-1.7-2.4-3.8-3-6.1s-0.7-4.9-0.2-7.5c1-5.5,3.7-10.2,8.2-14c4.4-3.8,9.5-5.7,15-5.7
		H856c1.7,0,3.4-0.2,5-0.5c0.8-0.2,1.6-0.4,2.4-0.8l-3.6,20.4C858.9,280,856,284.8,851.5,288.7z"/>
</g>
<g>
	<path class="st0" d="M30.7,345.5c-1.4,0-2.8,0.3-4.2,0.9c-1.4,0.6-2.6,1.3-3.7,2.2c-1.1,0.9-2,2-2.8,3.3s-1.3,2.6-1.5,4.1l-1.6,9.2
		c-0.3,1.4-0.3,2.8,0,4.1s0.9,2.4,1.7,3.4s1.8,1.7,3,2.3s2.5,0.9,3.9,0.9h7.6c1,0,1.8,0.3,2.3,0.9s0.7,1.4,0.5,2.5s-0.6,1.9-1.4,2.6
		c-0.7,0.6-1.6,0.9-2.6,0.9h-7.6c-2.5,0-4.7-0.4-6.7-1.3s-3.6-2.1-4.9-3.7s-2.2-3.4-2.7-5.6c-0.5-2.1-0.6-4.4-0.2-6.9l1.6-9.2
		c0.4-2.4,1.3-4.7,2.6-6.8c1.3-2.1,2.9-4,4.7-5.6c1.9-1.6,3.9-2.8,6.2-3.8c2.3-0.9,4.7-1.4,7.1-1.4h7.6c1,0,1.8,0.3,2.4,0.9
		c0.6,0.6,0.7,1.5,0.5,2.6c-0.2,1-0.7,1.9-1.4,2.5s-1.7,1-2.7,1H30.7L30.7,345.5z"/>
	<path class="st0" d="M85,343.7c1.4,1.6,2.3,3.5,2.8,5.6s0.6,4.4,0.1,6.7l-1.6,9.2c-0.4,2.5-1.3,4.7-2.6,6.9s-2.9,4-4.8,5.6
		s-4,2.8-6.3,3.7s-4.7,1.3-7,1.3c-2.5,0-4.7-0.4-6.6-1.3c-2-0.9-3.6-2.1-4.9-3.7c-1.3-1.6-2.2-3.4-2.7-5.6c-0.5-2.1-0.6-4.4-0.2-6.9
		l1.6-9.2c0.4-2.3,1.3-4.6,2.5-6.7c1.3-2.1,2.8-4,4.8-5.6H60c1.9-1.7,4-3,6.4-3.9c2.3-0.9,4.7-1.3,7-1.3c2.4,0,4.6,0.4,6.5,1.3
		C81.9,340.7,83.6,342,85,343.7z M66.9,375.7c1.4,0,2.8-0.3,4.2-0.9s2.6-1.3,3.8-2.3c1.1-1,2.1-2.1,2.9-3.4s1.4-2.6,1.7-4.1l1.6-9.2
		c0.5-2.8-0.1-5.3-1.8-7.4c-1.7-2-4-3.1-7.1-3.1c-2.8,0-5.4,1-7.9,3.1c-1.2,1-2.2,2.2-2.9,3.5c-0.8,1.3-1.2,2.6-1.5,4l-1.6,9.2
		c-0.3,1.4-0.3,2.8,0,4.1s0.9,2.4,1.7,3.4s1.8,1.7,3,2.3C64.1,375.4,65.4,375.7,66.9,375.7z"/>
	<path class="st0" d="M127.2,338.5c2,0,3.9,0.4,5.5,1.2s3,1.8,4.1,3.1s1.9,2.9,2.4,4.7s0.5,3.7,0.2,5.7l-4.6,25.9
		c-0.2,1.1-0.7,1.9-1.5,2.6c-0.8,0.6-1.6,0.9-2.5,0.9c-1.1,0-1.9-0.3-2.5-0.9c-0.6-0.6-0.8-1.5-0.6-2.6l4.6-25.9
		c0.2-1.1,0.1-2.1-0.1-3c-0.2-0.9-0.6-1.7-1.2-2.4c-0.6-0.7-1.3-1.2-2.2-1.7c-0.9-0.5-1.8-0.6-2.9-0.6h-5.6c-1.1,0-2.1,0.2-3.1,0.6
		s-1.8,0.9-2.6,1.6s-1.5,1.5-2.1,2.4s-1,1.9-1.2,2.9l-4.7,26.1c-0.2,1.1-0.6,1.9-1.4,2.6c-0.7,0.6-1.6,0.9-2.6,0.9s-1.8-0.3-2.4-0.9
		s-0.8-1.5-0.6-2.6l6.5-37.1c0.2-1.1,0.7-1.9,1.5-2.6c0.8-0.6,1.7-0.9,2.7-0.9c1.7,0,2.7,0.8,3,2.2c2.6-1.5,5.4-2.2,8.3-2.2
		L127.2,338.5L127.2,338.5z"/>
	<path class="st0" d="M179.5,365.8c1.6,1.9,2.2,4.3,1.8,7.2c-0.5,2.6-1.9,4.9-4.2,6.8c-2.2,1.9-4.7,2.9-7.4,2.9h-16.5
		c-1,0-1.8-0.3-2.3-0.9s-0.7-1.5-0.5-2.6c0.2-1,0.6-1.8,1.4-2.5c0.7-0.6,1.6-0.9,2.6-0.9h16.4c0.4,0,0.7-0.1,1.2-0.3
		c0.4-0.2,0.8-0.4,1.3-0.6c0.3-0.3,0.5-0.6,0.6-0.9s0.2-0.6,0.3-0.9c0.1-0.4,0-0.8,0-1.1c-0.1-0.3-0.2-0.7-0.3-1
		c-2.5-2.5-5-5.1-7.5-7.7s-5-5.2-7.4-7.8c-1.7-1.9-2.3-4.3-1.8-7.2c0.2-1.3,0.7-2.6,1.5-3.8c0.7-1.2,1.6-2.2,2.6-3.1
		c2.1-1.9,4.6-2.9,7.4-2.9h14.4c1,0,1.8,0.3,2.4,0.9c0.6,0.6,0.8,1.5,0.6,2.5c-0.2,1.1-0.7,2-1.5,2.6s-1.7,0.9-2.7,0.9h-14.4
		c-0.9,0-1.6,0.3-2.2,0.8c-0.5,0.5-0.9,1.2-1.1,2c-0.1,0.4-0.1,0.8-0.1,1.1s0.1,0.6,0.4,0.8c0,0.1,1.3,1.4,3.8,4
		S174.5,360.6,179.5,365.8z"/>
	<path class="st0" d="M230.7,343.7c1.4,1.6,2.3,3.5,2.8,5.6s0.6,4.4,0.1,6.7l-1.6,9.2c-0.4,2.5-1.3,4.7-2.6,6.9s-2.9,4-4.8,5.6
		c-1.9,1.6-4,2.8-6.3,3.7s-4.7,1.3-7,1.3c-2.5,0-4.7-0.4-6.6-1.3c-2-0.9-3.6-2.1-4.9-3.7c-1.3-1.6-2.2-3.4-2.7-5.6
		c-0.5-2.1-0.6-4.4-0.2-6.9l1.6-9.2c0.4-2.3,1.3-4.6,2.5-6.7c1.3-2.1,2.8-4,4.8-5.6h-0.1c1.9-1.7,4-3,6.4-3.9c2.3-0.9,4.7-1.3,7-1.3
		c2.4,0,4.6,0.4,6.5,1.3C227.6,340.7,229.3,342,230.7,343.7z M212.6,375.7c1.4,0,2.8-0.3,4.2-0.9s2.6-1.3,3.8-2.3
		c1.1-1,2.1-2.1,2.9-3.4c0.8-1.3,1.4-2.6,1.7-4.1l1.6-9.2c0.5-2.8-0.1-5.3-1.8-7.4c-1.7-2-4-3.1-7.1-3.1c-2.8,0-5.4,1-7.9,3.1
		c-1.2,1-2.2,2.2-2.9,3.5s-1.2,2.6-1.5,4l-1.6,9.2c-0.3,1.4-0.3,2.8,0,4.1s0.9,2.4,1.7,3.4s1.8,1.7,3,2.3
		C209.8,375.4,211.1,375.7,212.6,375.7z"/>
	<path class="st0" d="M273.1,338.5c1,0,1.8,0.3,2.3,0.9s0.7,1.5,0.4,2.6c-0.2,1-0.6,1.9-1.4,2.5c-0.7,0.7-1.6,1-2.6,1h-5.7
		c-1,0-2,0.2-3,0.5c-1,0.4-1.9,0.9-2.7,1.6c-1.8,1.6-2.9,3.4-3.2,5.4l-4.7,26.1c-0.2,1.1-0.7,1.9-1.4,2.6c-0.8,0.6-1.7,0.9-2.7,0.9
		c-0.8,0-1.6-0.3-2.2-0.9c-0.7-0.6-0.9-1.5-0.7-2.6L252,342c0.2-1.1,0.8-1.9,1.6-2.6c0.8-0.6,1.7-0.9,2.5-0.9c0.8,0,1.5,0.2,2,0.6
		s0.9,0.9,1,1.6c2.6-1.4,5.3-2.2,8.2-2.2H273.1L273.1,338.5z"/>
	<path class="st0" d="M303.1,345.5c-1.4,0-2.8,0.3-4.2,0.9c-1.4,0.6-2.6,1.3-3.7,2.2c-1.1,0.9-2,2-2.8,3.3s-1.3,2.6-1.5,4.1
		l-1.6,9.2c-0.3,1.4-0.3,2.8,0,4.1s0.9,2.4,1.7,3.4s1.8,1.7,3,2.3s2.5,0.9,3.9,0.9h7.6c1,0,1.8,0.3,2.3,0.9s0.7,1.4,0.5,2.5
		s-0.6,1.9-1.4,2.6c-0.7,0.6-1.6,0.9-2.6,0.9h-7.6c-2.5,0-4.7-0.4-6.7-1.3s-3.6-2.1-4.9-3.7s-2.2-3.4-2.7-5.6
		c-0.5-2.1-0.6-4.4-0.2-6.9l1.6-9.2c0.4-2.4,1.3-4.7,2.6-6.8s2.9-4,4.7-5.6c1.9-1.6,3.9-2.8,6.2-3.8c2.3-0.9,4.7-1.4,7.1-1.4h7.6
		c1,0,1.8,0.3,2.4,0.9s0.7,1.5,0.5,2.6c-0.2,1-0.7,1.9-1.4,2.5s-1.7,1-2.7,1H303.1L303.1,345.5z"/>
	<path class="st0" d="M331.6,379.1c-0.2,1.1-0.7,1.9-1.5,2.6c-0.8,0.6-1.7,0.9-2.7,0.9c-2.3,0-3.3-1.2-2.8-3.5l6.5-37.1
		c0.2-1.1,0.7-1.9,1.4-2.6c0.7-0.6,1.6-0.9,2.6-0.9s1.8,0.3,2.4,0.9s0.8,1.5,0.5,2.6L331.6,379.1z M335.6,336c-1,0-1.8-0.3-2.3-1
		s-0.7-1.5-0.5-2.6s0.6-1.9,1.4-2.6c0.7-0.6,1.6-0.9,2.6-0.9s1.8,0.3,2.4,0.9s0.8,1.5,0.6,2.6c-0.2,1-0.7,1.9-1.5,2.6
		S336.6,336,335.6,336z"/>
	<path class="st0" d="M383.9,343.7c1.4,1.6,2.3,3.5,2.8,5.6s0.6,4.4,0.1,6.7l-1.6,9.2c-0.4,2.5-1.3,4.7-2.6,6.9s-2.9,4-4.8,5.6
		s-4,2.8-6.3,3.7s-4.7,1.3-7,1.3c-2.5,0-4.7-0.4-6.6-1.3c-2-0.9-3.6-2.1-4.9-3.7s-2.2-3.4-2.7-5.6c-0.5-2.1-0.6-4.4-0.2-6.9l1.6-9.2
		c0.4-2.3,1.3-4.6,2.5-6.7c1.3-2.1,2.8-4,4.8-5.6h-0.1c1.9-1.7,4-3,6.4-3.9c2.3-0.9,4.7-1.3,7-1.3c2.4,0,4.6,0.4,6.5,1.3
		C380.9,340.7,382.5,342,383.9,343.7z M365.8,375.7c1.4,0,2.8-0.3,4.2-0.9s2.6-1.3,3.8-2.3c1.1-1,2.1-2.1,2.9-3.4s1.4-2.6,1.7-4.1
		l1.6-9.2c0.5-2.8-0.1-5.3-1.8-7.4c-1.7-2-4-3.1-7.1-3.1c-2.8,0-5.4,1-7.9,3.1c-1.2,1-2.2,2.2-2.9,3.5c-0.8,1.3-1.2,2.6-1.5,4
		l-1.6,9.2c-0.3,1.4-0.3,2.8,0,4.1s0.9,2.4,1.7,3.4s1.8,1.7,3,2.3C363.1,375.4,364.4,375.7,365.8,375.7z"/>
	<path class="st0" d="M425.2,365.8c1.6,1.9,2.2,4.3,1.8,7.2c-0.5,2.6-1.9,4.9-4.2,6.8c-2.2,1.9-4.7,2.9-7.4,2.9h-16.5
		c-1,0-1.8-0.3-2.3-0.9s-0.7-1.5-0.5-2.6c0.2-1,0.6-1.8,1.4-2.5c0.7-0.6,1.6-0.9,2.6-0.9h16.5c0.4,0,0.7-0.1,1.2-0.3
		c0.4-0.2,0.8-0.4,1.3-0.6c0.3-0.3,0.5-0.6,0.6-0.9s0.2-0.6,0.3-0.9c0.1-0.4,0-0.8,0-1.1c-0.1-0.3-0.2-0.7-0.3-1
		c-2.5-2.5-5-5.1-7.5-7.7s-5-5.2-7.4-7.8c-1.7-1.9-2.3-4.3-1.8-7.2c0.2-1.3,0.7-2.6,1.5-3.8c0.7-1.2,1.6-2.2,2.6-3.1
		c2.1-1.9,4.6-2.9,7.4-2.9h14.4c1,0,1.8,0.3,2.4,0.9s0.8,1.5,0.6,2.5c-0.2,1.1-0.8,2-1.5,2.6c-0.8,0.6-1.7,0.9-2.7,0.9h-14.4
		c-0.9,0-1.6,0.3-2.2,0.8c-0.5,0.5-0.9,1.2-1.1,2c-0.1,0.4-0.1,0.8-0.1,1.1s0.1,0.6,0.4,0.8c0,0.1,1.3,1.4,3.8,4
		C416.5,356.7,420.2,360.6,425.2,365.8z"/>
</g>
<g>
	<path class="st0" d="M229.1,334.3c1.9-1.9,3.8-3.8,5.8-5.7c2.3-2.3-1.2-5.8-3.5-3.5c-1.9,1.9-3.8,3.8-5.8,5.7
		C223.2,333.1,226.8,336.6,229.1,334.3L229.1,334.3z"/>
</g>
<g>
	<circle class="st1" cx="433.3" cy="86.3" r="7.7"/>
	<circle class="st1" cx="497.8" cy="145" r="13.5"/>
	<circle class="st1" cx="547.5" cy="12.9" r="6.2"/>
	<circle class="st1" cx="582.8" cy="68.5" r="7.8"/>
	<circle class="st1" cx="697.8" cy="39.4" r="11.8"/>
	<circle class="st1" cx="793.3" cy="72.7" r="5.7"/>
	<circle class="st1" cx="877.6" cy="121.2" r="16.6"/>
	<path class="st1" d="M696.6,10.1c0.9,5,1.5,10,2,15s0.8,10.1,1,15.1s0.3,10.1,0.2,15.1s-0.2,10.1-0.7,15.2c-0.9-5-1.5-10-2-15
		s-0.8-10.1-1-15.1s-0.3-10.1-0.2-15.1C695.9,20.3,696.1,15.2,696.6,10.1z"/>
	<path class="st1" d="M726.3,38.7c-4.9,0.8-9.8,1.4-14.6,1.8c-4.9,0.4-9.8,0.6-14.7,0.8c-4.9,0.1-9.8,0.2-14.7,0
		c-4.9-0.1-9.8-0.4-14.7-0.9c4.9-0.9,9.8-1.4,14.6-1.8c4.9-0.4,9.8-0.6,14.7-0.8c4.9-0.1,9.8-0.2,14.7,0
		C716.5,37.9,721.4,38.1,726.3,38.7z"/>
	<path class="st1" d="M796,56.5c-0.2,2.9-0.5,5.7-0.9,8.5c-0.4,2.8-0.9,5.6-1.5,8.4s-1.2,5.6-1.9,8.3c-0.7,2.8-1.5,5.5-2.4,8.2
		c0.2-2.9,0.5-5.7,0.9-8.5s0.9-5.6,1.5-8.4s1.2-5.6,1.9-8.3C794.3,61.9,795,59.2,796,56.5z"/>
	<path class="st1" d="M808.5,76.1c-2.8-0.2-5.5-0.6-8.3-1c-2.7-0.4-5.5-1-8.2-1.5c-2.7-0.6-5.4-1.2-8.1-1.9c-2.7-0.7-5.3-1.5-8-2.5
		c2.8,0.2,5.5,0.6,8.3,1c2.7,0.4,5.5,1,8.2,1.5c2.7,0.6,5.4,1.2,8.1,1.9C803.2,74.3,805.9,75.1,808.5,76.1z"/>
	<path class="st1" d="M596.2,42.6c-1.5,4.6-3.4,9.1-5.3,13.6s-4,8.8-6.1,13.2c-2.1,4.3-4.4,8.6-6.8,12.9c-2.4,4.2-4.8,8.4-7.6,12.5
		c1.5-4.7,3.4-9.1,5.3-13.6s4-8.8,6.1-13.2c2.1-4.3,4.4-8.6,6.8-12.9S593.4,46.6,596.2,42.6z"/>
	<path class="st1" d="M608.1,80.4c-4.5-1.5-8.9-3.4-13.2-5.3s-8.6-4-12.8-6.1s-8.3-4.4-12.4-6.7c-4.1-2.4-8.1-4.8-12-7.6
		c4.5,1.5,8.9,3.4,13.2,5.3c4.3,1.9,8.6,4,12.8,6.1s8.3,4.4,12.4,6.7C600.2,75.2,604.3,77.7,608.1,80.4z"/>
	<path class="st1" d="M503.8,113.3c-0.5,5.5-1.3,11-2.2,16.4c-1,5.4-2.1,10.8-3.3,16.1c-1.2,5.3-2.6,10.7-4.1,16s-3.1,10.5-5.1,15.7
		c0.5-5.5,1.3-11,2.2-16.4c1-5.4,2.1-10.8,3.3-16.1c1.2-5.3,2.6-10.7,4.1-16C500.2,123.7,501.8,118.5,503.8,113.3z"/>
	<path class="st1" d="M526.9,151.8c-5.4-0.5-10.6-1.4-15.9-2.3c-5.2-1-10.5-2.1-15.6-3.4c-5.2-1.2-10.3-2.6-15.5-4.1
		c-5.1-1.5-10.2-3.2-15.2-5.2c5.4,0.5,10.6,1.4,15.9,2.3c5.2,1,10.5,2.1,15.6,3.4c5.2,1.3,10.3,2.6,15.5,4.1
		C516.8,148.1,521.9,149.8,526.9,151.8z"/>
	<path class="st1" d="M550.4,0c-0.2,2.2-0.5,4.4-0.9,6.6s-0.8,4.3-1.3,6.5c-0.5,2.1-1,4.3-1.6,6.4s-1.2,4.2-2,6.3
		c0.2-2.2,0.5-4.4,0.9-6.6s0.8-4.3,1.3-6.5c0.5-2.1,1-4.3,1.6-6.4S549.6,2,550.4,0z"/>
	<path class="st1" d="M559.7,15.4c-2.2-0.2-4.3-0.5-6.4-0.9s-4.2-0.9-6.3-1.3c-2.1-0.5-4.2-1.1-6.2-1.7c-2.1-0.6-4.1-1.3-6.1-2.1
		c2.2,0.2,4.3,0.5,6.4,0.9s4.2,0.9,6.3,1.3c2.1,0.5,4.2,1.1,6.2,1.7C555.7,14,557.7,14.6,559.7,15.4z"/>
	<path class="st1" d="M885.7,85.1c-0.4,6.2-1.1,12.3-2,18.4s-2,12.1-3.2,18.2c-1.2,6-2.6,12-4.1,18s-3.2,11.9-5.2,17.7
		c0.4-6.2,1.1-12.3,2-18.4s2-12.1,3.2-18.2c1.2-6,2.6-12,4.1-18C882,96.9,883.6,90.9,885.7,85.1z"/>
	<path class="st1" d="M912.7,127.5c-6-0.4-12-1.2-17.9-2.1s-11.8-2.1-17.6-3.3c-5.8-1.2-11.7-2.6-17.4-4.2
		c-5.8-1.6-11.5-3.3-17.2-5.4c6,0.4,12,1.2,17.9,2.1s11.8,2.1,17.6,3.3c5.8,1.3,11.7,2.6,17.4,4.2
		C901.3,123.7,907,125.4,912.7,127.5z"/>
	<path class="st1" d="M437.3,68.5c-0.2,3.1-0.6,6.1-1,9.1s-1,6-1.6,9s-1.3,5.9-2,8.9c-0.8,2.9-1.6,5.9-2.6,8.7
		c0.2-3.1,0.6-6.1,1-9.1s1-6,1.6-9s1.3-5.9,2-8.9C435.5,74.3,436.3,71.4,437.3,68.5z"/>
	<path class="st1" d="M450.6,89.4c-3-0.2-5.9-0.6-8.8-1.1s-5.8-1-8.7-1.6s-5.7-1.3-8.6-2.1c-2.8-0.8-5.7-1.6-8.5-2.6
		c3,0.2,5.9,0.6,8.8,1.1s5.8,1,8.7,1.6s5.7,1.3,8.6,2.1C445,87.5,447.8,88.4,450.6,89.4z"/>
</g>
</svg>
